# xmcd
#
# Track frame offsets: 
#        150
#        17807
#        38111
#        60274
#        83829
#        104528
#        137594
#        156636
#        178663
#        199326
#        221338
#        241040
#        260529
#        278333
#
# Disc length: 4188 seconds
#
# Revision: 9
# Processed by: cddbd v1.5.2PL0 Copyright (c) Steve Scherf et al.
# Submitted via: ExactAudioCopyFreeDBPlugin 1.0
#
DISCID=bc105a0e
DTITLE=Walter Trout - We're All In This Together
DYEAR=2017
DGENRE=Blues
TTITLE0=Gonna Hurt Like Hell (ft. Kenny Wayne Shepherd)
TTITLE1=Ain't Goin' Back (ft. Sonny Landreth)
TTITLE2=The Other Side Of The Pillow (ft. Charlie Musselwhite)
TTITLE3=She Listens To The Blackbird Sing (ft. Mike Zito)
TTITLE4=Mr. Davis (ft. Robben Ford)
TTITLE5=The Sky Is Crying (ft.Warren Haynes)
TTITLE6=Somebody Goin' Down (ft. Eric Gales)
TTITLE7=She Steals My Heart Away (ft. Edgar Winter)
TTITLE8=Crash And Burn (ft. Joe Louis Walker)
TTITLE9=Too Much To Carry (ft. John Nemeth)
TTITLE10=Do You Still See Me At All (ft. Jon Trout)
TTITLE11=Got Nothin' Left (ft. Randy Bachman)
TTITLE12=Blues For Jimmy T. (ft. John Mayall)
TTITLE13=We're All In This Together (ft. Joe Bonamassa)
EXTD=Release-Date: 01.09.2017\n\nMARO\n YEAR: 2017
EXTT0=
EXTT1=
EXTT2=
EXTT3=
EXTT4=
EXTT5=
EXTT6=
EXTT7=
EXTT8=
EXTT9=
EXTT10=
EXTT11=
EXTT12=
EXTT13=
PLAYORDER=
